<?xml version="1.0" encoding="UTF-8" standalone="no"?>
<svg
   xmlns:dc="http://purl.org/dc/elements/1.1/"
   xmlns:cc="http://creativecommons.org/ns#"
   xmlns:rdf="http://www.w3.org/1999/02/22-rdf-syntax-ns#"
   xmlns:svg="http://www.w3.org/2000/svg"
   xmlns="http://www.w3.org/2000/svg"
   xmlns:sodipodi="http://sodipodi.sourceforge.net/DTD/sodipodi-0.dtd"
   xmlns:inkscape="http://www.inkscape.org/namespaces/inkscape"
   width="296.61093mm"
   height="79.970253mm"
   viewBox="0 0 296.61093 79.970253"
   version="1.1"
   id="svg18"
   inkscape:version="1.0.2-2 (e86c870879, 2021-01-15)"
   sodipodi:docname="Google-logo.svg">
  <title
     id="title949">Google-logo</title>
  <defs
     id="defs12" />
  <sodipodi:namedview
     id="base"
     pagecolor="#ffffff"
     bordercolor="#666666"
     borderopacity="1.0"
     inkscape:pageopacity="0.0"
     inkscape:pageshadow="2"
     inkscape:zoom="0.47"
     inkscape:cx="504.00984"
     inkscape:cy="339.19664"
     inkscape:document-units="mm"
     inkscape:current-layer="layer2"
     inkscape:document-rotation="0"
     showgrid="false"
     fit-margin-top="0"
     fit-margin-left="0"
     fit-margin-right="0"
     fit-margin-bottom="0"
     inkscape:window-width="1366"
     inkscape:window-height="705"
     inkscape:window-x="-8"
     inkscape:window-y="-8"
     inkscape:window-maximized="1" />
  <metadata
     id="metadata15">
    <rdf:RDF>
      <cc:Work
         rdf:about="">
        <dc:format>image/svg+xml</dc:format>
        <dc:type
           rdf:resource="http://purl.org/dc/dcmitype/StillImage" />
        <dc:title>Google-logo</dc:title>
      </cc:Work>
    </rdf:RDF>
  </metadata>
  <g
     inkscape:groupmode="layer"
     id="layer2"
     inkscape:label="Layer 2"
     transform="translate(-0.5350621,-15.773996)">
    <g
       id="g45">
      <g
         aria-label="G"
         id="text41"
         style="font-weight:bold;font-size:82.8731px;line-height:1.25;font-family:'Century Gothic';-inkscape-font-specification:'Century Gothic Bold';text-align:center;letter-spacing:0px;word-spacing:0px;text-anchor:middle;fill:#00a2e8;fill-opacity:1;stroke-width:0.575508"
         transform="translate(0,15.680922)">
        <path
           d="m 58.157765,11.301984 -7.97168,7.890749 q -7.567027,-8.012145 -17.642907,-8.012145 -8.780987,0 -14.729398,5.827015 -5.907946,5.827015 -5.907946,14.162883 0,8.619126 6.150738,14.608003 6.150738,5.988876 15.174518,5.988876 5.86748,0 9.873553,-2.468388 4.046538,-2.468388 6.514926,-7.728888 H 32.381317 V 30.927694 h 29.944382 l 0.08093,2.508854 q 0,7.809818 -4.046538,14.810329 -4.046539,7.000511 -10.480534,10.682861 -6.433996,3.682349 -15.093587,3.682349 -9.266572,0 -16.550341,-4.006072 Q 8.9923267,54.559476 4.7434617,47.113846 0.5350621,39.668216 0.5350621,31.04909 q 0,-11.815891 7.8098185,-20.556413 Q 17.611453,0.09307362 32.462248,0.09307362 q 7.769353,0 14.527071,2.87304208 5.705619,2.4279228 11.168446,8.3358683 z"
           style="fill:#00a2e8;fill-opacity:1;stroke-width:0.575508"
           id="path931" />
      </g>
      <g
         aria-label="o"
         id="text868"
         style="font-weight:bold;font-size:83.4504px;line-height:1.25;font-family:'Century Gothic';-inkscape-font-specification:'Century Gothic Bold';text-align:center;letter-spacing:0px;word-spacing:0px;text-anchor:middle;fill:#ed1c03;fill-opacity:1;stroke-width:0.579516"
         transform="translate(0.78564527,15.848356)">
        <path
           d="m 92.306096,15.829781 q 6.275079,0 11.775964,3.137539 5.54162,3.13754 8.63842,8.516179 3.09679,5.378639 3.09679,11.612971 0,6.275079 -3.13754,11.735213 -3.09679,5.460133 -8.47543,8.556925 -5.378641,3.056045 -11.857457,3.056045 -9.53486,0 -16.298906,-6.764046 -6.723299,-6.804793 -6.723299,-16.502643 0,-10.390552 7.619739,-17.317588 6.682551,-6.030595 15.361719,-6.030595 z m 0.162989,10.472047 q -5.174903,0 -8.63842,3.626507 -3.422771,3.585759 -3.422771,9.208882 0,5.786112 3.382023,9.371871 3.422771,3.58576 8.638421,3.58576 5.21565,0 8.679172,-3.626507 3.46351,-3.626507 3.46351,-9.331124 0,-5.704617 -3.42277,-9.249629 -3.38202,-3.58576 -8.679165,-3.58576 z"
           style="fill:#ed1c03;fill-opacity:1;stroke-width:0.579516"
           id="path934" />
      </g>
      <g
         aria-label="o"
         id="text872"
         style="font-weight:bold;font-size:82.4426px;line-height:1.25;font-family:'Century Gothic';-inkscape-font-specification:'Century Gothic Bold';text-align:center;letter-spacing:0px;word-spacing:0px;text-anchor:middle;fill:#ffc90e;fill-opacity:1;stroke-width:0.572517"
         transform="translate(1.5023074,16.411306)">
        <path
           d="m 145.50818,15.829784 q 6.19929,0 11.63374,3.099649 5.47471,3.099648 8.5341,8.413331 3.05939,5.313683 3.05939,11.472725 0,6.199297 -3.09965,11.59349 -3.05939,5.394193 -8.37307,8.453586 -5.31368,3.019138 -11.71426,3.019138 -9.41971,0 -16.10207,-6.682358 -6.6421,-6.722615 -6.6421,-16.303346 0,-10.265069 7.52772,-17.108449 6.60185,-5.957766 15.1762,-5.957766 z m 0.16102,10.34558 q -5.11241,0 -8.5341,3.582711 -3.38143,3.542455 -3.38143,9.097669 0,5.716235 3.34118,9.25869 3.38143,3.542455 8.53409,3.542455 5.15267,0 8.57436,-3.58271 3.42169,-3.582711 3.42169,-9.218435 0,-5.635724 -3.38144,-9.137925 -3.34118,-3.542455 -8.57435,-3.542455 z"
           style="fill:#ffc90e;fill-opacity:1;stroke-width:0.572517"
           id="path937" />
      </g>
      <g
         aria-label="g"
         id="text876"
         style="font-weight:bold;font-size:83.7079px;line-height:1.25;font-family:'Century Gothic';-inkscape-font-specification:'Century Gothic Bold';text-align:center;letter-spacing:0px;word-spacing:0px;text-anchor:middle;fill:#00a2e8;fill-opacity:1;stroke-width:0.581304"
         transform="translate(2.508815,17.451241)">
        <path
           d="m 210.25636,16.411289 h 11.11745 v 38.093634 q 0,11.280948 -4.5369,16.594438 -6.09008,7.193648 -18.35198,7.193648 -6.53968,0 -10.99483,-1.63492 -4.45516,-1.63492 -7.52063,-4.823014 -3.06548,-3.147221 -4.53691,-7.684124 h 12.30278 q 1.63492,1.880158 4.20991,2.820237 2.575,0.980952 6.09008,0.980952 4.49603,0 7.23452,-1.389682 2.73849,-1.389682 3.84206,-3.596824 1.14445,-2.207142 1.14445,-7.602378 -2.94286,2.942856 -6.17183,4.250792 -3.22896,1.267063 -7.31626,1.267063 -8.95119,0 -15.12301,-6.457934 -6.17182,-6.457933 -6.17182,-16.349199 0,-10.586107 6.53968,-17.003167 5.92658,-5.803966 14.14205,-5.803966 3.84206,0 7.23452,1.430555 3.43334,1.389682 6.86667,4.618649 z m -11.56706,9.27817 q -5.27262,0 -8.70595,3.555951 -3.43333,3.515078 -3.43333,8.869441 0,5.558728 3.51508,9.114679 3.51507,3.555951 8.82856,3.555951 5.19087,0 8.54246,-3.474205 3.39246,-3.474205 3.39246,-9.114679 0,-5.558728 -3.39246,-9.032933 -3.39246,-3.474205 -8.74682,-3.474205 z"
           style="fill:#00a2e8;fill-opacity:1;stroke-width:0.581304"
           id="path940" />
      </g>
      <g
         aria-label="l"
         id="text880"
         style="font-weight:bold;font-size:83.7897px;line-height:1.25;font-family:'Century Gothic';-inkscape-font-specification:'Century Gothic Bold';text-align:center;letter-spacing:0px;word-spacing:0px;text-anchor:middle;fill:#23b111;fill-opacity:1;stroke-width:0.581872"
         transform="translate(0.50420563,16.503279)">
        <path
           d="M 231.08207,0.0930149 H 242.2513 V 61.78973 h -11.16923 z"
           style="fill:#23b111;fill-opacity:1;stroke-width:0.581872"
           id="path943" />
      </g>
      <g
         aria-label="e"
         transform="rotate(-21.12125,41.943198,7.8196539)"
         id="text884"
         style="font-weight:bold;font-size:82.4426px;line-height:1.25;font-family:'Century Gothic';-inkscape-font-specification:'Century Gothic Bold';text-align:center;letter-spacing:0px;word-spacing:0px;text-anchor:middle;fill:#ed1c03;fill-opacity:1;stroke-width:0.572517">
        <path
           d="m 263.97501,138.54601 h -35.30379 q 0.76485,4.6696 4.06578,7.4472 3.34118,2.73736 8.49384,2.73736 6.15904,0 10.58711,-4.30731 l 9.25869,4.34756 q -3.46195,4.91113 -8.29257,7.28619 -4.83062,2.3348 -11.47272,2.3348 -10.30533,0 -16.78641,-6.48108 -6.48108,-6.52134 -6.48108,-16.30335 0,-10.02354 6.44083,-16.62539 6.48108,-6.6421 16.22283,-6.6421 10.34558,0 16.82666,6.6421 6.48109,6.60185 6.48109,17.47075 z m -11.02992,-8.65486 q -1.08689,-3.66323 -4.3073,-5.95777 -3.18016,-2.29455 -7.40695,-2.29455 -4.58909,0 -8.05104,2.57634 -2.17378,1.6102 -4.02551,5.67598 z"
           style="fill:#ed1c03;fill-opacity:1;stroke-width:0.572517"
           id="path946" />
      </g>
    </g>
  </g>
</svg>
